<?xml version="1.0" standalone="no"?>
<!DOCTYPE svg PUBLIC "-//W3C//DTD SVG 20010904//EN"
 "http://www.w3.org/TR/2001/REC-SVG-20010904/DTD/svg10.dtd">
<svg version="1.0" xmlns="http://www.w3.org/2000/svg"
 width="1200.000000pt" height="1200.000000pt" viewBox="0 0 1200.000000 1200.000000"
 preserveAspectRatio="xMidYMid meet">
<metadata>
Created by potrace 1.14, written by Peter Selinger 2001-2017
</metadata>
<g transform="translate(0.000000,1200.000000) scale(0.100000,-0.100000)"
fill="#000000" stroke="none">
<path d="M0 6000 l0 -6000 6000 0 6000 0 0 6000 0 6000 -6000 0 -6000 0 0
-6000z m9368 1203 c-2 -12 -276 -136 -968 -436 -2519 -1092 -3869 -1673 -4127
-1776 -202 -80 -361 -133 -508 -167 -110 -26 -137 -28 -310 -28 -178 0 -196 2
-278 27 -219 67 -419 213 -493 359 -145 286 -44 710 299 1259 110 177 355 508
462 624 l46 50 -24 -50 c-46 -96 -95 -231 -123 -340 -25 -96 -28 -128 -28
-250 0 -124 3 -149 27 -220 54 -164 152 -274 315 -354 118 -59 280 -87 432
-76 123 9 -1 -24 2810 739 1323 360 2420 654 2438 655 27 1 33 -3 30 -16z"/>
</g>
</svg>
